<svg xmlns="http://www.w3.org/2000/svg" width="900" height="254" viewBox="0 0 900 254" class="sc-root" role="img" aria-labelledby="sc-sparkline-title sc-sparkline-desc"><metadata id="example-provenance">{"source":"GitHub REST API","apiVersion":"2022-11-28","method":"Authenticated gh api; all Link: next pages of native weekly history","semantics":"Unmodified native weekly recorded additions, not a reconstructed unstar ledger. Current metadata and recorded totals may differ; no scaling or invented additions. Requests are sequential, not an atomic snapshot.","asOf":"2026-09-14T03:45:49.440Z","repositories":[{"metadata":{"owner":"rails","repo":"rails","fullName":"rails/rails","createdAt":"2008-04-11T02:19:47Z","stargazersCount":58751},"provenance":{"metadataUrl":"https://api.github.com/repos/rails/rails","historyUrl":"https://api.github.com/repos/rails/rails/stargazers/history?per_page=30","pages":33,"recordedTotal":58750,"currentMinusRecorded":1}}]}</metadata><title id="sc-sparkline-title">rails/rails | GitHub snapshot 2026-09-14</title><desc id="sc-sparkline-desc">Star history for rails/rails over all time. 58,751 current stars. 58,750 recorded additions in range. 2008-04-11 to 2026-09-14. Scale: absolute. Display intervals subdivide nominal API weeks; the final week may still be partial.</desc><style>.sc-root{font-family:-apple-system,BlinkMacSystemFont,"Segoe UI",sans-serif;}.sc-t{fill:var(--sc-text);}.sc-m{fill:var(--sc-muted);}.sc-a{fill:var(--sc-accent);}.sc-empty{fill:var(--sc-empty);}.sc-l1{fill:var(--sc-l1);}.sc-l2{fill:var(--sc-l2);}.sc-l3{fill:var(--sc-l3);}.sc-l4{fill:var(--sc-l4);}.sc-stroke{fill:none;stroke:var(--sc-stroke);}.sc-area{fill:var(--sc-fill);}.sc-bar{fill:var(--sc-stroke);}.sc-axis{stroke:var(--sc-axis);}.sc-dot{fill:var(--sc-stroke);}:root{--sc-empty:#30363d;--sc-l1:#0e4429;--sc-l2:#006d32;--sc-l3:#26a641;--sc-l4:#39d353;--sc-text:#e6edf3;--sc-muted:#9198a1;--sc-border:#3d444d;--sc-accent:#e3b341;--sc-stroke:#3fb950;--sc-fill:#3fb950;--sc-axis:#3d444d;}</style><g class="sc-header"><text x="16" y="26" class="sc-t sc-title" font-size="14" textLength="347.2" lengthAdjust="spacingAndGlyphs" font-weight="600">rails/rails | GitHub snapshot 2026-09-14</text><text x="16" y="42" class="sc-m" font-size="11" textLength="54.56" lengthAdjust="spacingAndGlyphs">all time</text><text x="825.64" y="26" class="sc-t sc-total" font-size="13" textLength="64.48" lengthAdjust="spacingAndGlyphs" text-anchor="end"><tspan class="sc-a">★</tspan> 58,751</text><text x="884" y="26" class="sc-m sc-change" font-size="13" textLength="48.36" lengthAdjust="spacingAndGlyphs" text-anchor="end">+58.8k</text></g><g class="sc-x-axis"><line class="sc-axis" x1="16" x2="884" y1="214" y2="214"/></g><g aria-hidden="true"><path d="M32.692,208.124C38.256,207.195,43.821,206.266,49.385,205.311C54.949,204.357,60.513,203.306,66.077,202.397C71.641,201.487,77.205,200.685,82.769,199.854C88.333,199.024,93.897,198.295,99.462,197.414C105.026,196.533,110.59,195.574,116.154,194.568C121.718,193.563,127.282,192.409,132.846,191.381C138.41,190.353,143.974,189.502,149.538,188.4C155.103,187.297,160.667,185.859,166.231,184.766C171.795,183.672,177.359,182.776,182.923,181.84C188.487,180.904,194.051,179.969,199.615,179.151C205.179,178.333,210.744,177.463,216.308,176.932C221.872,176.4,227.436,176.383,233,175.961C238.564,175.539,244.128,175.247,249.692,174.398C255.256,173.548,260.821,171.911,266.385,170.865C271.949,169.82,277.513,169.168,283.077,168.124C288.641,167.081,294.205,165.798,299.769,164.603C305.333,163.408,310.897,162.229,316.462,160.952C322.026,159.675,327.59,158.309,333.154,156.94C338.718,155.572,344.282,154.187,349.846,152.741C355.41,151.294,360.974,149.722,366.538,148.262C372.103,146.803,377.667,145.576,383.231,143.986C388.795,142.396,394.359,140.372,399.923,138.722C405.487,137.071,411.051,135.531,416.615,134.084C422.179,132.636,427.744,131.485,433.308,130.039C438.872,128.592,444.436,126.831,450,125.406C455.564,123.981,461.128,122.864,466.692,121.488C472.256,120.111,477.821,118.511,483.385,117.147C488.949,115.784,494.513,114.578,500.077,113.306C505.641,112.035,511.205,110.763,516.769,109.518C522.333,108.272,527.897,107.047,533.462,105.834C539.026,104.62,544.59,103.291,550.154,102.238C555.718,101.185,561.282,100.392,566.846,99.516C572.41,98.641,577.974,97.855,583.538,96.985C589.103,96.115,594.667,95.257,600.231,94.296C605.795,93.336,611.359,92.265,616.923,91.219C622.487,90.173,628.051,88.944,633.615,88.021C639.179,87.097,644.744,86.558,650.308,85.677C655.872,84.795,661.436,83.689,667,82.732C672.564,81.774,678.128,80.781,683.692,79.933C689.256,79.085,694.821,78.449,700.385,77.641C705.949,76.834,711.513,75.927,717.077,75.088C722.641,74.249,728.205,73.444,733.769,72.606C739.333,71.769,744.897,70.994,750.462,70.064C756.026,69.134,761.59,67.924,767.154,67.025C772.718,66.127,778.282,65.518,783.846,64.673C789.41,63.829,794.974,62.77,800.538,61.957C806.103,61.145,811.667,60.488,817.231,59.798C822.795,59.108,828.359,58.561,833.923,57.815C839.487,57.07,845.051,56,850.615,55.323C856.179,54.646,861.744,54.308,867.308,53.754C872.872,53.2,878.436,52.6,884,52" class="sc-stroke" stroke-width="1.75" stroke-linecap="round" stroke-linejoin="round"/></g><circle cx="32.692" cy="208.124" r="6" fill="transparent"><title>Apr 2008–Aug 2008: 2,131 recorded stars at bucket end (+2,131; current week may be partial)</title></circle><circle cx="49.385" cy="205.311" r="6" fill="transparent"><title>Aug 2008–Dec 2008: 3,151 recorded stars at bucket end (+1,020; current week may be partial)</title></circle><circle cx="66.077" cy="202.397" r="6" fill="transparent"><title>Dec 2008–May 2009: 4,208 recorded stars at bucket end (+1,057; current week may be partial)</title></circle><circle cx="82.769" cy="199.854" r="6" fill="transparent"><title>May 2009–Sep 2009: 5,130 recorded stars at bucket end (+922; current week may be partial)</title></circle><circle cx="99.462" cy="197.414" r="6" fill="transparent"><title>Sep 2009–Jan 2010: 6,015 recorded stars at bucket end (+885; current week may be partial)</title></circle><circle cx="116.154" cy="194.568" r="6" fill="transparent"><title>Jan 2010–May 2010: 7,047 recorded stars at bucket end (+1,032; current week may be partial)</title></circle><circle cx="132.846" cy="191.381" r="6" fill="transparent"><title>May 2010–Oct 2010: 8,203 recorded stars at bucket end (+1,156; current week may be partial)</title></circle><circle cx="149.538" cy="188.4" r="6" fill="transparent"><title>Oct 2010–Feb 2011: 9,284 recorded stars at bucket end (+1,081; current week may be partial)</title></circle><circle cx="166.231" cy="184.766" r="6" fill="transparent"><title>Feb 2011–Jun 2011: 10,602 recorded stars at bucket end (+1,318; current week may be partial)</title></circle><circle cx="182.923" cy="181.84" r="6" fill="transparent"><title>Jun 2011–Oct 2011: 11,663 recorded stars at bucket end (+1,061; current week may be partial)</title></circle><circle cx="199.615" cy="179.151" r="6" fill="transparent"><title>Oct 2011–Mar 2012: 12,638 recorded stars at bucket end (+975; current week may be partial)</title></circle><circle cx="216.308" cy="176.932" r="6" fill="transparent"><title>Mar 2012–Jul 2012: 13,443 recorded stars at bucket end (+805; current week may be partial)</title></circle><circle cx="233" cy="175.961" r="6" fill="transparent"><title>Jul 2012–Nov 2012: 13,795 recorded stars at bucket end (+352; current week may be partial)</title></circle><circle cx="249.692" cy="174.398" r="6" fill="transparent"><title>Nov 2012–Mar 2013: 14,362 recorded stars at bucket end (+567; current week may be partial)</title></circle><circle cx="266.385" cy="170.865" r="6" fill="transparent"><title>Mar 2013–Aug 2013: 15,643 recorded stars at bucket end (+1,281; current week may be partial)</title></circle><circle cx="283.077" cy="168.124" r="6" fill="transparent"><title>Aug 2013–Dec 2013: 16,637 recorded stars at bucket end (+994; current week may be partial)</title></circle><circle cx="299.769" cy="164.603" r="6" fill="transparent"><title>Dec 2013–Apr 2014: 17,914 recorded stars at bucket end (+1,277; current week may be partial)</title></circle><circle cx="316.462" cy="160.952" r="6" fill="transparent"><title>Apr 2014–Aug 2014: 19,238 recorded stars at bucket end (+1,324; current week may be partial)</title></circle><circle cx="333.154" cy="156.94" r="6" fill="transparent"><title>Aug 2014–Jan 2015: 20,693 recorded stars at bucket end (+1,455; current week may be partial)</title></circle><circle cx="349.846" cy="152.741" r="6" fill="transparent"><title>Jan 2015–May 2015: 22,216 recorded stars at bucket end (+1,523; current week may be partial)</title></circle><circle cx="366.538" cy="148.262" r="6" fill="transparent"><title>May 2015–Sep 2015: 23,840 recorded stars at bucket end (+1,624; current week may be partial)</title></circle><circle cx="383.231" cy="143.986" r="6" fill="transparent"><title>Sep 2015–Jan 2016: 25,391 recorded stars at bucket end (+1,551; current week may be partial)</title></circle><circle cx="399.923" cy="138.722" r="6" fill="transparent"><title>Jan 2016–Jun 2016: 27,300 recorded stars at bucket end (+1,909; current week may be partial)</title></circle><circle cx="416.615" cy="134.084" r="6" fill="transparent"><title>Jun 2016–Oct 2016: 28,982 recorded stars at bucket end (+1,682; current week may be partial)</title></circle><circle cx="433.308" cy="130.039" r="6" fill="transparent"><title>Oct 2016–Feb 2017: 30,449 recorded stars at bucket end (+1,467; current week may be partial)</title></circle><circle cx="450" cy="125.406" r="6" fill="transparent"><title>Feb 2017–Jun 2017: 32,129 recorded stars at bucket end (+1,680; current week may be partial)</title></circle><circle cx="466.692" cy="121.488" r="6" fill="transparent"><title>Jun 2017–Nov 2017: 33,550 recorded stars at bucket end (+1,421; current week may be partial)</title></circle><circle cx="483.385" cy="117.147" r="6" fill="transparent"><title>Nov 2017–Mar 2018: 35,124 recorded stars at bucket end (+1,574; current week may be partial)</title></circle><circle cx="500.077" cy="113.306" r="6" fill="transparent"><title>Mar 2018–Jul 2018: 36,517 recorded stars at bucket end (+1,393; current week may be partial)</title></circle><circle cx="516.769" cy="109.518" r="6" fill="transparent"><title>Jul 2018–Nov 2018: 37,891 recorded stars at bucket end (+1,374; current week may be partial)</title></circle><circle cx="533.462" cy="105.834" r="6" fill="transparent"><title>Nov 2018–Apr 2019: 39,227 recorded stars at bucket end (+1,336; current week may be partial)</title></circle><circle cx="550.154" cy="102.238" r="6" fill="transparent"><title>Apr 2019–Aug 2019: 40,531 recorded stars at bucket end (+1,304; current week may be partial)</title></circle><circle cx="566.846" cy="99.516" r="6" fill="transparent"><title>Aug 2019–Dec 2019: 41,518 recorded stars at bucket end (+987; current week may be partial)</title></circle><circle cx="583.538" cy="96.985" r="6" fill="transparent"><title>Dec 2019–Apr 2020: 42,436 recorded stars at bucket end (+918; current week may be partial)</title></circle><circle cx="600.231" cy="94.296" r="6" fill="transparent"><title>Apr 2020–Sep 2020: 43,411 recorded stars at bucket end (+975; current week may be partial)</title></circle><circle cx="616.923" cy="91.219" r="6" fill="transparent"><title>Sep 2020–Jan 2021: 44,527 recorded stars at bucket end (+1,116; current week may be partial)</title></circle><circle cx="633.615" cy="88.021" r="6" fill="transparent"><title>Jan 2021–May 2021: 45,687 recorded stars at bucket end (+1,160; current week may be partial)</title></circle><circle cx="650.308" cy="85.677" r="6" fill="transparent"><title>May 2021–Sep 2021: 46,537 recorded stars at bucket end (+850; current week may be partial)</title></circle><circle cx="667" cy="82.732" r="6" fill="transparent"><title>Sep 2021–Feb 2022: 47,605 recorded stars at bucket end (+1,068; current week may be partial)</title></circle><circle cx="683.692" cy="79.933" r="6" fill="transparent"><title>Feb 2022–Jun 2022: 48,620 recorded stars at bucket end (+1,015; current week may be partial)</title></circle><circle cx="700.385" cy="77.641" r="6" fill="transparent"><title>Jun 2022–Oct 2022: 49,451 recorded stars at bucket end (+831; current week may be partial)</title></circle><circle cx="717.077" cy="75.088" r="6" fill="transparent"><title>Oct 2022–Feb 2023: 50,377 recorded stars at bucket end (+926; current week may be partial)</title></circle><circle cx="733.769" cy="72.606" r="6" fill="transparent"><title>Feb 2023–Jul 2023: 51,277 recorded stars at bucket end (+900; current week may be partial)</title></circle><circle cx="750.462" cy="70.064" r="6" fill="transparent"><title>Jul 2023–Nov 2023: 52,199 recorded stars at bucket end (+922; current week may be partial)</title></circle><circle cx="767.154" cy="67.025" r="6" fill="transparent"><title>Nov 2023–Mar 2024: 53,301 recorded stars at bucket end (+1,102; current week may be partial)</title></circle><circle cx="783.846" cy="64.673" r="6" fill="transparent"><title>Mar 2024–Jul 2024: 54,154 recorded stars at bucket end (+853; current week may be partial)</title></circle><circle cx="800.538" cy="61.957" r="6" fill="transparent"><title>Jul 2024–Dec 2024: 55,139 recorded stars at bucket end (+985; current week may be partial)</title></circle><circle cx="817.231" cy="59.798" r="6" fill="transparent"><title>Dec 2024–Apr 2025: 55,922 recorded stars at bucket end (+783; current week may be partial)</title></circle><circle cx="833.923" cy="57.815" r="6" fill="transparent"><title>Apr 2025–Aug 2025: 56,641 recorded stars at bucket end (+719; current week may be partial)</title></circle><circle cx="850.615" cy="55.323" r="6" fill="transparent"><title>Aug 2025–Dec 2025: 57,545 recorded stars at bucket end (+904; current week may be partial)</title></circle><circle cx="867.308" cy="53.754" r="6" fill="transparent"><title>Dec 2025–May 2026: 58,114 recorded stars at bucket end (+569; current week may be partial)</title></circle><circle cx="884" cy="52" r="6" fill="transparent"><title>May 2026–Sep 2026: 58,750 recorded stars at bucket end (+636; current week may be partial)</title></circle><g class="sc-dates"><text x="40.8" y="230" class="sc-m" font-size="10" text-anchor="middle" textLength="49.6" lengthAdjust="spacingAndGlyphs">Apr 2008</text><text x="216.30769230746267" y="230" class="sc-m" font-size="10" text-anchor="middle" textLength="49.6" lengthAdjust="spacingAndGlyphs">Jul 2012</text><text x="416.61538461492535" y="230" class="sc-m" font-size="10" text-anchor="middle" textLength="49.6" lengthAdjust="spacingAndGlyphs">Oct 2016</text><text x="616.923076922388" y="230" class="sc-m" font-size="10" text-anchor="middle" textLength="49.6" lengthAdjust="spacingAndGlyphs">Jan 2021</text><text x="817.2307692313433" y="230" class="sc-m" font-size="10" text-anchor="middle" textLength="49.6" lengthAdjust="spacingAndGlyphs">Apr 2025</text></g><text x="884" y="246" text-anchor="end" class="sc-m" font-size="9" opacity="0.8">★ Star Chart</text></svg>